<svg data-v-423bf9ae="" xmlns="http://www.w3.org/2000/svg" viewBox="0 0 199.0156601716301 182" class="iconAboveSlogan"><g data-v-423bf9ae="" id="f1ff58e8-da80-45bb-a171-14ee2a128f58" fill="#000000" transform="matrix(4.474272981560021,0,0,4.474272981560021,-4.876954423434768,91.69759504653044)"><path d="M4.56 4.07L4.56 4.07Q5.45 3.61 6.44 3.61Q7.43 3.61 8.04 3.96Q8.65 4.30 8.65 4.93L8.65 4.93Q8.65 5.28 8.52 5.58Q8.39 5.88 8.27 6.01Q8.16 6.13 7.94 6.33L7.94 6.33Q7.59 5.53 7.08 5.11Q6.57 4.69 5.80 4.69Q5.03 4.69 4.45 5.15Q3.86 5.61 3.54 6.30Q3.21 6.99 2.98 7.84L2.98 7.84Q2.60 9.28 2.60 10.68L2.60 10.68Q2.60 12.94 3.33 14.14Q4.06 15.34 5.50 15.34L5.50 15.34Q6.29 15.34 6.90 14.85Q7.50 14.36 7.83 13.43L7.83 13.43Q8.18 13.82 8.18 14.39L8.18 14.39Q8.18 15.12 7.23 15.72Q6.29 16.32 5.11 16.32L5.11 16.32Q3.08 16.32 2.09 14.94Q1.09 13.55 1.09 11.33L1.09 11.33Q1.09 9.06 1.96 7.10L1.96 7.10Q2.91 4.94 4.56 4.07ZM9.77 13.89L9.77 13.89Q9.77 13.12 10.03 11.48Q10.29 9.84 10.29 8.67Q10.29 7.49 10.00 6.93L10.00 6.93Q10.35 6.61 10.84 6.61L10.84 6.61Q11.87 6.61 11.87 7.67L11.87 7.67Q11.87 8.02 11.54 10.36Q11.21 12.70 11.21 13.80Q11.21 14.91 11.89 14.91L11.89 14.91Q12.45 14.91 13.24 13.59Q14.04 12.28 14.60 10.63Q15.16 8.99 15.16 8.20Q15.16 7.41 14.95 6.93L14.95 6.93Q15.32 6.61 15.81 6.61L15.81 6.61Q16.84 6.61 16.84 7.67L16.84 7.67Q16.84 8.44 16.58 10.04Q16.31 11.63 16.31 12.54L16.31 12.54Q16.31 14.53 16.97 15.61L16.97 15.61Q16.55 16.13 16.02 16.13L16.02 16.13Q14.81 16.13 14.81 13.17L14.81 13.17Q14.81 12.89 14.98 11.34L14.98 11.34Q13.79 14.15 12.99 15.19L12.99 15.19Q12.66 15.64 12.24 15.95Q11.83 16.25 11.44 16.25L11.44 16.25Q9.77 16.25 9.77 13.89ZM21.97 4.35Q21.97 5.12 21.43 8.71Q20.89 12.29 20.89 13.67Q20.89 15.05 21.42 15.62L21.42 15.62Q20.99 16.13 20.45 16.13L20.45 16.13Q19.36 16.13 19.36 14.28L19.36 14.28Q19.36 13.59 19.86 10.19Q20.36 6.79 20.36 5.30Q20.36 3.81 20.06 3.22L20.06 3.22Q20.22 3.09 20.50 3.00Q20.79 2.91 21.00 2.91L21.00 2.91Q21.49 2.91 21.73 3.25Q21.97 3.58 21.97 4.35ZM27.20 15.82L27.20 15.82L27.22 16.00Q26.75 16.17 26.43 16.17L26.43 16.17Q25.86 16.17 25.72 15.57L25.72 15.57Q24.57 10.68 23.93 9.23L23.93 9.23Q23.45 8.12 23.16 7.85Q22.88 7.57 22.67 7.57L22.67 7.57Q22.82 7.10 23.16 6.87Q23.49 6.65 23.81 6.65L23.81 6.65Q24.67 6.65 25.24 8.09L25.24 8.09Q25.56 8.95 26.87 14.49L26.87 14.49Q27.58 12.78 28.06 10.87Q28.53 8.96 28.53 7.88L28.53 7.88Q28.53 7.48 28.38 7.21L28.38 7.21Q28.70 6.69 29.37 6.69L29.37 6.69Q30.02 6.69 30.02 7.43Q30.02 8.18 29.20 10.72Q28.39 13.27 27.44 15.16L27.44 15.16Q27.22 15.62 27.20 15.82ZM33.53 12.10L33.53 12.10Q33.15 12.10 32.77 12.05L32.77 12.05Q32.79 13.61 33.36 14.42Q33.92 15.23 34.94 15.23L34.94 15.23Q36.39 15.23 37.04 13.82L37.04 13.82Q37.38 14.14 37.38 14.60L37.38 14.60Q37.38 15.39 36.51 15.83Q35.63 16.27 34.68 16.27L34.68 16.27Q32.98 16.27 32.12 15.19Q31.26 14.11 31.26 12.40L31.26 12.40Q31.26 11.38 31.58 10.34Q31.91 9.30 32.47 8.42Q33.03 7.55 33.91 7.00Q34.79 6.45 35.84 6.45Q36.89 6.45 37.44 6.99Q38.00 7.52 38.00 8.36L38.00 8.36Q38.00 9.72 36.74 10.91Q35.49 12.10 33.53 12.10ZM36.53 8.82Q36.53 8.25 36.17 7.88Q35.81 7.50 35.19 7.50Q34.57 7.50 34.11 7.85Q33.66 8.20 33.39 8.79L33.39 8.79Q32.91 9.88 32.80 11.16L32.80 11.16Q33.14 11.20 33.43 11.20L33.43 11.20Q34.86 11.20 35.69 10.46Q36.53 9.73 36.53 8.82L36.53 8.82ZM40.94 16.13L40.94 16.13Q39.84 16.13 39.84 14.28L39.84 14.28Q39.84 13.51 40.14 11.68Q40.43 9.84 40.43 8.67Q40.43 7.49 40.14 6.93L40.14 6.93Q40.49 6.61 40.99 6.61L40.99 6.61Q42.01 6.61 42.01 7.67L42.01 7.67Q42.01 8.05 41.84 9.23Q41.66 10.40 41.61 10.84L41.61 10.84Q42.36 8.85 43.31 7.65Q44.25 6.45 44.87 6.45L44.87 6.45Q45.22 6.45 45.40 6.79Q45.57 7.13 45.57 7.48Q45.57 7.83 45.49 8.19L45.49 8.19Q45.28 8.15 45.09 8.15L45.09 8.15Q44.20 8.15 43.30 9.20Q42.39 10.25 41.88 11.51Q41.37 12.77 41.37 13.59L41.37 13.59Q41.37 15.05 41.90 15.62L41.90 15.62Q41.47 16.13 40.94 16.13Z"></path></g><defs data-v-423bf9ae=""><linearGradient data-v-423bf9ae="" gradientTransform="rotate(25)" id="ccaa9737-1804-4dea-a35d-fc3d25d1a3db" x1="0%" y1="0%" x2="100%" y2="0%"><stop data-v-423bf9ae="" offset="0%" style="stop-color: rgb(65, 226, 150); stop-opacity: 1;"></stop><stop data-v-423bf9ae="" offset="100%" style="stop-color: rgb(0, 196, 238); stop-opacity: 1;"></stop></linearGradient></defs><g data-v-423bf9ae="" id="6840bb5d-141a-406d-a90c-375f82ce8486" transform="matrix(1.009497833251953,0,0,1.009497833251953,45.47737930968506,-3.9048927987794713)" stroke="none" fill="url(#ccaa9737-1804-4dea-a35d-fc3d25d1a3db)"><path d="M95.787 79.654c-2.663-4.705-12.19-13.357-19.053-17.658-.104-3.139-8.093-18.587-13.931-21.608 0 0-11.54-16.572-15.845-17.038-1.707-7.204-8.945-27.34-27.452-14.095 0 0-7.65-.154-7.717.388-.147 1.173 7.854 4.025 7.854 4.025s4.917 10.38 2.458 17.118c-2.303 6.313 2.323 23.157 25.339 30.977 0 0-14.763 12.393-13.438 19.683-2.827 4.346-4.748 7.753-4.049 8.042 1.209.502 1.714 6.564 1.71 6.197-.022-2.286 2.079-6.816 4.891-11.848.974.994 3.767 1.791 4.942-2.559 0 0-1.504-.387-1.912-1.471a2.4 2.4 0 0 0-.339-.597c2.528-4.198 5.242-8.374 7.406-11.617.927.296 3.234.553 3.861-.563 1.085-1.945 1.158-3.399.635-4.729 2.455-.392 5.517.11 9.267.312 6.83 3.723 14.067 6.662 14.067 6.662s9.783 8.982 12.038 8.982c2.254 0 3.98 2.367 4.711 2.846.975.643-.922-2.088-.308-2.088s3.997 2.033 3.997 2.033l-1.69-2.383c0 .001 2.867 1.532 2.558.989"></path></g><g data-v-423bf9ae="" id="849c399a-d4db-4e8e-865e-24cd4c91ac59" fill="#000000" transform="matrix(0.37923152250891096,0,0,0.37923152250891096,26.505133776087902,207.48754008626028)"><path d="M1.83 14.38L1.83 14.38Q1.83 13.87 2.00 13.07Q2.16 12.26 2.42 11.33Q2.67 10.40 3.01 9.43Q3.35 8.46 3.70 7.60Q4.05 6.75 4.38 6.10Q4.72 5.46 4.98 5.18L4.98 5.18Q5.12 5.19 5.36 5.29Q5.59 5.38 5.82 5.50Q6.06 5.63 6.26 5.78Q6.45 5.92 6.51 6.05L6.51 6.05Q6.10 6.41 5.71 7.15Q5.31 7.88 4.94 8.82Q4.56 9.76 4.24 10.80Q3.92 11.84 3.68 12.82Q3.44 13.80 3.31 14.64Q3.18 15.48 3.18 16.00L3.18 16.00Q3.18 16.24 3.22 16.30L3.22 16.30Q2.91 16.28 2.77 16.19Q2.63 16.10 2.56 16.00Q2.48 15.89 2.42 15.79Q2.35 15.68 2.23 15.62L2.23 15.62Q2.13 15.58 2.06 15.43Q1.99 15.27 1.94 15.09Q1.89 14.90 1.86 14.70Q1.83 14.50 1.83 14.38ZM14.07 16.24L14.07 16.24Q13.27 16.00 12.99 15.79Q12.71 15.57 12.71 15.19L12.71 15.19Q12.71 14.77 12.91 14.01Q13.10 13.24 13.42 12.31Q13.73 11.37 14.14 10.35Q14.55 9.32 14.97 8.39Q15.39 7.45 15.79 6.67Q16.18 5.89 16.49 5.46L16.49 5.46L16.39 4.87Q16.59 4.87 16.94 4.97Q17.29 5.07 17.65 5.21Q18.00 5.35 18.28 5.49Q18.55 5.64 18.58 5.74L18.58 5.74Q18.51 6.08 18.47 6.76Q18.42 7.43 18.42 8.20L18.42 8.20Q18.42 9.73 18.54 11.19Q18.66 12.66 19.10 14.17L19.10 14.17Q19.32 13.05 19.58 11.94Q19.84 10.82 20.12 9.81Q20.40 8.79 20.68 7.92Q20.96 7.06 21.22 6.40Q21.48 5.75 21.70 5.38Q21.92 5.01 22.11 4.98L22.11 4.98Q22.26 5.01 22.44 5.10Q22.62 5.19 22.79 5.32Q22.96 5.45 23.10 5.60Q23.24 5.75 23.32 5.91L23.32 5.91Q22.88 6.09 22.44 6.76Q21.99 7.43 21.59 8.39Q21.20 9.35 20.85 10.47Q20.51 11.59 20.25 12.68Q19.99 13.76 19.84 14.69Q19.70 15.61 19.68 16.17L19.68 16.17Q19.68 16.20 19.70 16.21L19.70 16.21Q19.66 16.23 19.61 16.23Q19.56 16.23 19.52 16.23L19.52 16.23Q18.87 16.23 18.38 16.07Q17.88 15.90 17.72 15.61L17.72 15.61Q17.43 14.43 17.23 13.34Q17.04 12.25 16.91 11.16Q16.77 10.07 16.70 8.95Q16.62 7.84 16.58 6.62L16.58 6.62Q16.31 7.04 16.02 7.72Q15.72 8.40 15.44 9.21Q15.16 10.02 14.90 10.92Q14.64 11.82 14.45 12.67Q14.25 13.52 14.14 14.29Q14.03 15.05 14.03 15.61L14.03 15.61Q14.03 15.90 14.04 16.03Q14.04 16.16 14.07 16.24ZM38.51 5.74L38.51 5.74Q38.56 5.98 38.58 6.07Q38.60 6.16 38.60 6.31L38.60 6.31Q38.60 6.78 38.40 7.18Q38.19 7.57 37.84 7.74L37.84 7.74Q37.56 7.36 37.16 7.09Q36.75 6.82 36.27 6.64Q35.78 6.47 35.27 6.38Q34.75 6.30 34.26 6.30L34.26 6.30Q33.77 6.30 33.34 6.38Q32.91 6.45 32.59 6.59Q32.26 6.72 32.07 6.92Q31.88 7.11 31.88 7.36L31.88 7.36Q31.92 7.67 32.26 7.99Q32.59 8.30 33.08 8.60Q33.57 8.90 34.17 9.20Q34.76 9.49 35.34 9.76L35.34 9.76Q36.05 10.09 36.57 10.38Q37.09 10.67 37.42 11.01Q37.76 11.35 37.93 11.79Q38.09 12.22 38.09 12.84L38.09 12.84Q38.09 13.55 37.86 14.18Q37.62 14.80 37.16 15.26Q36.71 15.72 36.06 15.98Q35.42 16.24 34.62 16.24L34.62 16.24Q33.84 16.24 32.93 16.00Q32.02 15.76 31.23 15.35Q30.44 14.94 29.91 14.40Q29.39 13.86 29.39 13.26L29.39 13.26Q29.39 12.98 29.55 12.54Q29.71 12.11 30.13 11.63L30.13 11.63Q30.17 12.05 30.58 12.63Q31.00 13.20 31.82 13.69L31.82 13.69Q32.59 14.14 33.41 14.34Q34.23 14.55 34.94 14.55L34.94 14.55Q35.73 14.55 36.22 14.35Q36.71 14.15 36.99 13.88Q37.27 13.61 37.38 13.33Q37.49 13.05 37.51 12.88L37.51 12.88Q37.49 12.60 37.25 12.34Q37.00 12.08 36.59 11.84Q36.18 11.59 35.63 11.34Q35.08 11.09 34.50 10.84L34.50 10.84Q33.61 10.44 32.98 10.10Q32.34 9.76 31.93 9.40Q31.51 9.04 31.33 8.65Q31.14 8.26 31.14 7.76L31.14 7.76Q31.14 6.97 31.61 6.27Q32.09 5.57 32.98 5.21L32.98 5.21Q33.43 5.01 33.94 4.93Q34.45 4.84 34.94 4.84L34.94 4.84Q35.87 4.84 36.75 5.10Q37.63 5.35 38.51 5.74ZM48.50 6.69L48.50 6.69Q47.94 6.69 47.63 6.38Q47.33 6.06 47.33 5.61L47.33 5.61Q47.33 5.50 47.37 5.35Q47.40 5.19 47.46 5.08L47.46 5.08Q47.64 5.17 48.00 5.20Q48.36 5.24 48.83 5.24L48.83 5.24Q49.55 5.24 50.45 5.17Q51.35 5.11 52.18 5.04Q53.00 4.97 53.63 4.91Q54.26 4.84 54.45 4.84L54.45 4.84Q54.96 4.84 55.19 5.23Q55.43 5.61 55.54 6.26L55.54 6.26Q55.17 6.23 54.82 6.21Q54.46 6.19 54.21 6.19L54.21 6.19Q53.76 6.19 53.30 6.22Q52.85 6.24 52.39 6.30L52.39 6.30Q52.19 6.71 51.95 7.26Q51.72 7.81 51.48 8.41Q51.25 9.02 51.04 9.61Q50.83 10.21 50.68 10.68L50.68 10.68Q50.37 11.61 50.14 12.39Q49.91 13.17 49.73 13.85Q49.56 14.53 49.43 15.15Q49.31 15.76 49.21 16.35L49.21 16.35Q48.27 16.21 47.64 15.18L47.64 15.18Q47.75 14.74 47.91 14.23Q48.08 13.72 48.29 13.07Q48.51 12.42 48.80 11.59Q49.10 10.77 49.48 9.72L49.48 9.72Q49.62 9.32 49.77 8.90Q49.92 8.47 50.07 8.05Q50.22 7.63 50.34 7.24Q50.46 6.85 50.54 6.52L50.54 6.52Q49.95 6.59 49.43 6.64Q48.90 6.69 48.50 6.69ZM60.93 16.24L60.93 16.24Q60.26 16.04 60.00 15.85Q59.74 15.65 59.74 15.36L59.74 15.36Q59.74 15.13 59.86 14.73Q59.99 14.32 60.23 13.77Q60.48 13.22 60.82 12.54Q61.17 11.87 61.60 11.10L61.60 11.10Q61.24 11.09 60.95 11.08Q60.66 11.07 60.48 11.07L60.48 11.07Q60.56 10.86 60.96 10.71Q61.35 10.56 61.99 10.44L61.99 10.44Q62.54 9.53 63.16 8.71Q63.78 7.88 64.41 7.19Q65.04 6.50 65.67 5.97Q66.30 5.45 66.88 5.14L66.88 5.14Q66.89 5.04 66.90 4.97Q66.91 4.90 66.91 4.87L66.91 4.87Q67.10 4.87 67.43 4.97Q67.76 5.07 68.07 5.21Q68.39 5.35 68.63 5.49Q68.88 5.64 68.91 5.74L68.91 5.74Q68.45 6.55 68.00 8.17Q67.55 9.79 67.26 12.04L67.26 12.04Q67.19 12.60 67.14 13.31Q67.09 14.03 67.09 14.91L67.09 14.91Q67.09 15.22 67.09 15.54Q67.09 15.86 67.12 16.21L67.12 16.21Q67.09 16.23 67.06 16.23Q67.03 16.23 66.95 16.23L66.95 16.23Q66.75 16.23 66.49 16.16Q66.23 16.10 65.99 16.01Q65.74 15.92 65.57 15.81Q65.39 15.69 65.35 15.61L65.35 15.61Q65.34 15.43 65.34 15.25Q65.34 15.08 65.34 14.88L65.34 14.88Q65.34 14.01 65.40 13.12Q65.46 12.22 65.62 11.27L65.62 11.27Q65.42 11.26 65.10 11.23Q64.78 11.21 64.38 11.20Q63.98 11.19 63.52 11.16Q63.07 11.14 62.64 11.13L62.64 11.13Q62.30 11.76 62.01 12.38Q61.71 13.01 61.50 13.64L61.50 13.64Q61.26 14.31 61.12 14.98Q60.97 15.65 60.93 16.24ZM66.33 7.83L66.33 7.83Q66.39 7.63 66.46 7.29Q66.54 6.94 66.61 6.57L66.61 6.57Q66.26 6.69 65.83 7.03Q65.41 7.36 64.95 7.86Q64.50 8.36 64.03 8.98Q63.56 9.60 63.13 10.30L63.13 10.30Q64.30 10.21 65.80 10.18L65.80 10.18Q65.91 9.59 66.04 9.01Q66.18 8.43 66.33 7.83ZM77.53 16.24L77.53 16.24Q76.73 16.00 76.45 15.79Q76.17 15.57 76.17 15.19L76.17 15.19Q76.17 14.77 76.37 14.01Q76.57 13.24 76.88 12.31Q77.20 11.37 77.60 10.35Q78.01 9.32 78.43 8.39Q78.85 7.45 79.25 6.67Q79.65 5.89 79.95 5.46L79.95 5.46L79.86 4.87Q80.05 4.87 80.40 4.97Q80.75 5.07 81.11 5.21Q81.47 5.35 81.74 5.49Q82.01 5.64 82.04 5.74L82.04 5.74Q81.97 6.08 81.93 6.76Q81.89 7.43 81.89 8.20L81.89 8.20Q81.89 9.73 82.00 11.19Q82.12 12.66 82.56 14.17L82.56 14.17Q82.78 13.05 83.04 11.94Q83.30 10.82 83.58 9.81Q83.86 8.79 84.14 7.92Q84.42 7.06 84.68 6.40Q84.94 5.75 85.16 5.38Q85.39 5.01 85.57 4.98L85.57 4.98Q85.72 5.01 85.90 5.10Q86.09 5.19 86.25 5.32Q86.42 5.45 86.56 5.60Q86.70 5.75 86.79 5.91L86.79 5.91Q86.34 6.09 85.90 6.76Q85.46 7.43 85.06 8.39Q84.66 9.35 84.31 10.47Q83.97 11.59 83.71 12.68Q83.45 13.76 83.31 14.69Q83.16 15.61 83.15 16.17L83.15 16.17Q83.15 16.20 83.16 16.21L83.16 16.21Q83.12 16.23 83.07 16.23Q83.02 16.23 82.98 16.23L82.98 16.23Q82.33 16.23 81.84 16.07Q81.34 15.90 81.19 15.61L81.19 15.61Q80.89 14.43 80.70 13.34Q80.50 12.25 80.37 11.16Q80.23 10.07 80.16 8.95Q80.08 7.84 80.04 6.62L80.04 6.62Q79.77 7.04 79.48 7.72Q79.18 8.40 78.90 9.21Q78.62 10.02 78.36 10.92Q78.11 11.82 77.91 12.67Q77.71 13.52 77.60 14.29Q77.49 15.05 77.49 15.61L77.49 15.61Q77.49 15.90 77.50 16.03Q77.50 16.16 77.53 16.24ZM95.62 6.69L95.62 6.69Q95.06 6.69 94.76 6.38Q94.46 6.06 94.46 5.61L94.46 5.61Q94.46 5.50 94.49 5.35Q94.53 5.19 94.58 5.08L94.58 5.08Q94.77 5.17 95.12 5.20Q95.48 5.24 95.96 5.24L95.96 5.24Q96.67 5.24 97.57 5.17Q98.48 5.11 99.30 5.04Q100.13 4.97 100.76 4.91Q101.39 4.84 101.57 4.84L101.57 4.84Q102.09 4.84 102.32 5.23Q102.55 5.61 102.66 6.26L102.66 6.26Q102.30 6.23 101.94 6.21Q101.58 6.19 101.33 6.19L101.33 6.19Q100.88 6.19 100.43 6.22Q99.97 6.24 99.51 6.30L99.51 6.30Q99.32 6.71 99.08 7.26Q98.84 7.81 98.61 8.41Q98.38 9.02 98.17 9.61Q97.96 10.21 97.80 10.68L97.80 10.68Q97.50 11.61 97.26 12.39Q97.03 13.17 96.86 13.85Q96.68 14.53 96.56 15.15Q96.43 15.76 96.33 16.35L96.33 16.35Q95.40 16.21 94.77 15.18L94.77 15.18Q94.88 14.74 95.04 14.23Q95.20 13.72 95.42 13.07Q95.63 12.42 95.93 11.59Q96.22 10.77 96.60 9.72L96.60 9.72Q96.74 9.32 96.89 8.90Q97.05 8.47 97.19 8.05Q97.34 7.63 97.46 7.24Q97.58 6.85 97.66 6.52L97.66 6.52Q97.08 6.59 96.55 6.64Q96.03 6.69 95.62 6.69ZM106.16 17.54L106.16 17.54Q106.08 17.47 106.01 17.31Q105.94 17.15 105.94 17.01L105.94 17.01Q106.64 16.41 106.94 15.86Q107.24 15.32 107.24 14.67L107.24 14.67Q107.24 14.25 107.20 13.95Q107.17 13.65 107.07 13.26L107.07 13.26Q107.42 13.29 107.76 13.38Q108.11 13.47 108.38 13.60Q108.65 13.73 108.84 13.91Q109.02 14.08 109.06 14.25L109.06 14.25Q108.40 16.58 106.16 17.54ZM137.16 5.74L137.16 5.74Q137.20 5.98 137.22 6.07Q137.24 6.16 137.24 6.31L137.24 6.31Q137.24 6.78 137.04 7.18Q136.84 7.57 136.49 7.74L136.49 7.74Q136.21 7.36 135.80 7.09Q135.39 6.82 134.91 6.64Q134.43 6.47 133.91 6.38Q133.39 6.30 132.90 6.30L132.90 6.30Q132.41 6.30 131.98 6.38Q131.56 6.45 131.23 6.59Q130.90 6.72 130.71 6.92Q130.52 7.11 130.52 7.36L130.52 7.36Q130.56 7.67 130.90 7.99Q131.24 8.30 131.73 8.60Q132.22 8.90 132.81 9.20Q133.41 9.49 133.98 9.76L133.98 9.76Q134.69 10.09 135.21 10.38Q135.73 10.67 136.07 11.01Q136.40 11.35 136.57 11.79Q136.74 12.22 136.74 12.84L136.74 12.84Q136.74 13.55 136.50 14.18Q136.26 14.80 135.81 15.26Q135.35 15.72 134.71 15.98Q134.06 16.24 133.27 16.24L133.27 16.24Q132.48 16.24 131.57 16.00Q130.66 15.76 129.87 15.35Q129.08 14.94 128.55 14.40Q128.03 13.86 128.03 13.26L128.03 13.26Q128.03 12.98 128.19 12.54Q128.35 12.11 128.77 11.63L128.77 11.63Q128.81 12.05 129.23 12.63Q129.64 13.20 130.47 13.69L130.47 13.69Q131.24 14.14 132.05 14.34Q132.87 14.55 133.59 14.55L133.59 14.55Q134.37 14.55 134.86 14.35Q135.35 14.15 135.63 13.88Q135.91 13.61 136.02 13.33Q136.14 13.05 136.15 12.88L136.15 12.88Q136.14 12.60 135.89 12.34Q135.65 12.08 135.23 11.84Q134.82 11.59 134.27 11.34Q133.73 11.09 133.14 10.84L133.14 10.84Q132.26 10.44 131.62 10.10Q130.98 9.76 130.57 9.40Q130.16 9.04 129.97 8.65Q129.78 8.26 129.78 7.76L129.78 7.76Q129.78 6.97 130.26 6.27Q130.73 5.57 131.63 5.21L131.63 5.21Q132.08 5.01 132.59 4.93Q133.10 4.84 133.59 4.84L133.59 4.84Q134.51 4.84 135.39 5.10Q136.28 5.35 137.16 5.74ZM150.64 9.21L150.64 9.21Q151.10 9.21 151.36 9.46Q151.62 9.72 151.62 10.16L151.62 10.16Q151.62 10.28 151.60 10.39Q151.58 10.51 151.55 10.60L151.55 10.60Q151.37 10.57 151.14 10.55Q150.92 10.53 150.61 10.53L150.61 10.53Q150.01 10.53 149.39 10.63Q148.78 10.74 148.22 10.81L148.22 10.81Q147.90 11.55 147.63 12.24Q147.36 12.94 147.17 13.51Q146.99 14.08 146.88 14.50Q146.78 14.92 146.76 15.13L146.76 15.13Q147.90 14.90 149.05 14.73Q150.21 14.56 151.48 14.48L151.48 14.48Q151.63 14.71 151.74 14.99Q151.84 15.27 151.84 15.60L151.84 15.60Q151.84 15.68 151.84 15.78Q151.84 15.88 151.82 15.97L151.82 15.97Q151.42 15.96 150.99 15.95Q150.56 15.95 149.86 15.95L149.86 15.95Q149.39 15.95 148.98 15.97Q148.57 15.99 148.15 16.03Q147.73 16.07 147.26 16.14Q146.79 16.21 146.20 16.31L146.20 16.31Q145.56 16.06 144.96 15.08L144.96 15.08Q145.19 14.57 145.62 13.54Q146.05 12.52 146.71 10.79L146.71 10.79Q146.08 10.60 145.88 10.09L145.88 10.09Q145.95 10.02 146.29 9.92Q146.62 9.81 147.11 9.70L147.11 9.70Q147.32 9.16 147.47 8.75Q147.62 8.34 147.73 7.99Q147.84 7.63 147.93 7.29Q148.02 6.94 148.11 6.54L148.11 6.54Q147.62 6.51 147.34 6.27Q147.06 6.02 147.06 5.63L147.06 5.63Q147.06 5.52 147.09 5.36Q147.13 5.21 147.17 5.10L147.17 5.10Q147.45 5.14 147.71 5.15Q147.97 5.17 148.39 5.17L148.39 5.17Q149.27 5.17 150.04 5.12Q150.81 5.07 151.43 5.01Q152.05 4.96 152.50 4.91Q152.95 4.86 153.19 4.86L153.19 4.86Q153.51 4.86 153.76 5.19Q154.01 5.53 154.14 6.15L154.14 6.15Q153.71 6.10 153.43 6.09Q153.16 6.08 152.95 6.08L152.95 6.08Q152.18 6.08 151.54 6.15Q150.91 6.23 150.32 6.31L150.32 6.31Q150.23 6.44 150.13 6.64Q150.02 6.83 149.86 7.18Q149.69 7.53 149.44 8.06Q149.20 8.60 148.85 9.39L148.85 9.39Q149.38 9.31 149.85 9.26Q150.32 9.21 150.64 9.21ZM160.82 12.43L160.82 12.43Q160.82 11.45 161.05 10.51Q161.28 9.56 161.70 8.71Q162.12 7.87 162.70 7.16Q163.28 6.45 163.97 5.94Q164.67 5.42 165.45 5.13Q166.24 4.84 167.06 4.84L167.06 4.84Q168.03 4.84 168.57 5.25Q169.11 5.66 169.11 6.38L169.11 6.38Q169.11 6.66 169.03 6.96Q168.95 7.25 168.80 7.54Q168.66 7.83 168.46 8.09Q168.27 8.36 168.03 8.55L168.03 8.55Q167.66 8.50 167.40 8.22Q167.13 7.95 167.06 7.59L167.06 7.59Q167.55 7.18 167.84 6.74Q168.13 6.30 168.13 5.94L168.13 5.94Q168.13 5.32 167.36 5.32L167.36 5.32Q167.03 5.32 166.69 5.45Q166.35 5.59 166.00 5.82Q165.65 6.06 165.32 6.40Q164.99 6.73 164.71 7.14L164.71 7.14Q162.76 9.94 162.76 12.87L162.76 12.87Q162.76 13.90 163.09 14.53Q163.41 15.16 163.94 15.27L163.94 15.27Q164.54 15.13 165.47 14.50Q166.39 13.87 167.48 12.87L167.48 12.87Q167.62 13.01 167.65 13.16L167.65 13.16Q167.24 13.69 166.81 14.18Q166.38 14.67 165.95 15.08Q165.52 15.48 165.11 15.79Q164.70 16.10 164.35 16.27L164.35 16.27Q162.61 16.24 161.71 15.27Q160.82 14.31 160.82 12.43ZM181.08 5.75L181.08 5.75Q180.46 6.58 179.96 7.57Q179.45 8.57 179.09 9.61Q178.74 10.65 178.55 11.67Q178.36 12.68 178.36 13.57L178.36 13.57Q178.36 14.66 178.68 15.15Q179.00 15.64 179.79 15.64L179.79 15.64Q180.70 15.64 181.38 15.00Q182.07 14.36 182.67 13.24L182.67 13.24Q183.06 12.52 183.34 11.65Q183.62 10.78 183.80 9.86Q183.97 8.95 184.06 8.02Q184.14 7.08 184.14 6.23L184.14 6.23Q184.14 5.68 184.13 5.43Q184.11 5.18 184.09 5.03L184.09 5.03Q184.13 5.03 184.30 5.05Q184.46 5.08 184.68 5.12Q184.90 5.17 185.11 5.24Q185.33 5.31 185.49 5.39L185.49 5.39Q185.42 6.45 185.23 7.59Q185.04 8.72 184.73 9.83Q184.42 10.93 184.02 11.96Q183.61 12.98 183.11 13.79L183.11 13.79Q182.36 14.99 181.44 15.67Q180.52 16.35 179.26 16.35L179.26 16.35Q177.97 16.35 177.25 15.60Q176.54 14.85 176.54 13.33L176.54 13.33Q176.54 12.45 176.74 11.33Q176.93 10.22 177.26 9.07Q177.59 7.91 178.02 6.81Q178.46 5.71 178.93 4.84L178.93 4.84Q179.17 4.86 179.49 4.94Q179.82 5.03 180.12 5.16Q180.43 5.29 180.69 5.45Q180.95 5.61 181.08 5.75ZM201.98 7.46L201.98 7.46Q201.98 8.13 201.68 8.73Q201.38 9.32 200.84 9.79Q200.31 10.26 199.60 10.58Q198.88 10.91 198.04 11.02L198.04 11.02Q198.25 11.65 198.55 12.31Q198.86 12.98 199.21 13.59Q199.56 14.21 199.93 14.73Q200.31 15.25 200.68 15.58L200.68 15.58Q200.61 15.72 200.47 15.86Q200.34 16.00 200.16 16.12Q199.99 16.24 199.80 16.32Q199.61 16.39 199.44 16.39L199.44 16.39Q199.14 16.39 198.86 16.10Q198.58 15.81 198.29 15.17Q198.00 14.53 197.69 13.52Q197.37 12.50 196.99 11.07L196.99 11.07Q196.84 11.07 196.69 11.07Q196.53 11.07 196.45 11.05L196.45 11.05Q196.35 10.99 196.24 10.85L196.24 10.85Q195.86 11.66 195.57 12.38Q195.27 13.09 195.04 13.76Q194.81 14.42 194.63 15.04Q194.46 15.67 194.33 16.31L194.33 16.31Q193.86 16.20 193.51 15.90Q193.16 15.61 192.85 15.08L192.85 15.08Q192.91 14.95 192.97 14.83Q193.03 14.71 193.13 14.50Q193.23 14.28 193.37 13.94Q193.52 13.61 193.77 13.05Q194.01 12.49 194.35 11.68Q194.70 10.86 195.19 9.70L195.19 9.70Q195.41 9.18 195.57 8.79Q195.73 8.40 195.86 8.04Q195.99 7.69 196.09 7.33Q196.20 6.97 196.31 6.51L196.31 6.51Q195.66 6.73 195.11 7.01Q194.56 7.28 194.19 7.59L194.19 7.59Q194.07 7.50 193.93 7.34Q193.80 7.17 193.69 6.96Q193.58 6.76 193.49 6.55Q193.41 6.34 193.40 6.17L193.40 6.17Q193.82 5.89 194.42 5.66Q195.03 5.42 195.72 5.24Q196.41 5.07 197.12 4.97Q197.83 4.87 198.45 4.87L198.45 4.87Q200.13 4.87 201.05 5.56Q201.98 6.26 201.98 7.46ZM198.39 6.02L198.56 6.29Q198.46 6.41 198.25 6.79Q198.04 7.17 197.77 7.69Q197.50 8.22 197.20 8.83Q196.90 9.45 196.62 10.05L196.62 10.05Q197.67 10.05 198.55 9.86Q199.43 9.66 200.07 9.30Q200.72 8.95 201.07 8.46Q201.43 7.98 201.43 7.39L201.43 7.39Q201.43 6.69 200.93 6.32Q200.42 5.95 199.37 5.95L199.37 5.95Q199.14 5.95 198.90 5.97Q198.66 5.99 198.39 6.02L198.39 6.02ZM214.80 9.21L214.80 9.21Q215.26 9.21 215.52 9.46Q215.78 9.72 215.78 10.16L215.78 10.16Q215.78 10.28 215.76 10.39Q215.74 10.51 215.71 10.60L215.71 10.60Q215.53 10.57 215.31 10.55Q215.08 10.53 214.77 10.53L214.77 10.53Q214.17 10.53 213.56 10.63Q212.94 10.74 212.38 10.81L212.38 10.81Q212.06 11.55 211.79 12.24Q211.53 12.94 211.34 13.51Q211.15 14.08 211.04 14.50Q210.94 14.92 210.92 15.13L210.92 15.13Q212.06 14.90 213.21 14.73Q214.37 14.56 215.64 14.48L215.64 14.48Q215.80 14.71 215.90 14.99Q216.01 15.27 216.01 15.60L216.01 15.60Q216.01 15.68 216.01 15.78Q216.01 15.88 215.98 15.97L215.98 15.97Q215.59 15.96 215.15 15.95Q214.72 15.95 214.02 15.95L214.02 15.95Q213.56 15.95 213.14 15.97Q212.73 15.99 212.31 16.03Q211.89 16.07 211.42 16.14Q210.95 16.21 210.36 16.31L210.36 16.31Q209.72 16.06 209.12 15.08L209.12 15.08Q209.36 14.57 209.78 13.54Q210.21 12.52 210.87 10.79L210.87 10.79Q210.24 10.60 210.04 10.09L210.04 10.09Q210.11 10.02 210.45 9.92Q210.78 9.81 211.27 9.70L211.27 9.70Q211.48 9.16 211.63 8.75Q211.78 8.34 211.89 7.99Q212.00 7.63 212.09 7.29Q212.18 6.94 212.27 6.54L212.27 6.54Q211.78 6.51 211.50 6.27Q211.22 6.02 211.22 5.63L211.22 5.63Q211.22 5.52 211.25 5.36Q211.29 5.21 211.33 5.10L211.33 5.10Q211.61 5.14 211.87 5.15Q212.13 5.17 212.55 5.17L212.55 5.17Q213.43 5.17 214.20 5.12Q214.97 5.07 215.59 5.01Q216.22 4.96 216.66 4.91Q217.11 4.86 217.35 4.86L217.35 4.86Q217.67 4.86 217.92 5.19Q218.18 5.53 218.30 6.15L218.30 6.15Q217.87 6.10 217.59 6.09Q217.32 6.08 217.11 6.08L217.11 6.08Q216.34 6.08 215.70 6.15Q215.07 6.23 214.48 6.31L214.48 6.31Q214.40 6.44 214.29 6.64Q214.19 6.83 214.02 7.18Q213.85 7.53 213.60 8.06Q213.36 8.60 213.01 9.39L213.01 9.39Q213.54 9.31 214.01 9.26Q214.48 9.21 214.80 9.21ZM223.37 17.54L223.37 17.54Q223.29 17.47 223.22 17.31Q223.15 17.15 223.15 17.01L223.15 17.01Q223.85 16.41 224.15 15.86Q224.45 15.32 224.45 14.67L224.45 14.67Q224.45 14.25 224.41 13.95Q224.38 13.65 224.28 13.26L224.28 13.26Q224.63 13.29 224.97 13.38Q225.32 13.47 225.59 13.60Q225.86 13.73 226.04 13.91Q226.23 14.08 226.27 14.25L226.27 14.25Q225.61 16.58 223.37 17.54ZM245.81 12.43L245.81 12.43Q245.81 11.45 246.04 10.51Q246.27 9.56 246.69 8.71Q247.11 7.87 247.70 7.16Q248.28 6.45 248.97 5.94Q249.66 5.42 250.45 5.13Q251.23 4.84 252.06 4.84L252.06 4.84Q253.02 4.84 253.56 5.25Q254.10 5.66 254.10 6.38L254.10 6.38Q254.10 6.66 254.02 6.96Q253.95 7.25 253.80 7.54Q253.65 7.83 253.46 8.09Q253.26 8.36 253.02 8.55L253.02 8.55Q252.66 8.50 252.39 8.22Q252.13 7.95 252.06 7.59L252.06 7.59Q252.55 7.18 252.83 6.74Q253.12 6.30 253.12 5.94L253.12 5.94Q253.12 5.32 252.35 5.32L252.35 5.32Q252.03 5.32 251.69 5.45Q251.34 5.59 250.99 5.82Q250.64 6.06 250.31 6.40Q249.98 6.73 249.70 7.14L249.70 7.14Q247.76 9.94 247.76 12.87L247.76 12.87Q247.76 13.90 248.08 14.53Q248.40 15.16 248.93 15.27L248.93 15.27Q249.54 15.13 250.46 14.50Q251.38 13.87 252.48 12.87L252.48 12.87Q252.62 13.01 252.64 13.16L252.64 13.16Q252.24 13.69 251.80 14.18Q251.37 14.67 250.94 15.08Q250.52 15.48 250.10 15.79Q249.69 16.10 249.34 16.27L249.34 16.27Q247.60 16.24 246.71 15.27Q245.81 14.31 245.81 12.43ZM267.15 4.98L267.15 4.98Q267.41 5.10 267.69 5.27Q267.97 5.45 268.21 5.63Q268.45 5.81 268.61 5.98Q268.77 6.16 268.79 6.27L268.79 6.27Q268.55 6.22 268.31 6.20Q268.07 6.17 267.88 6.17L267.88 6.17Q267.25 6.17 266.62 6.48Q266 6.79 265.44 7.32Q264.88 7.85 264.40 8.57Q263.93 9.28 263.58 10.09Q263.24 10.91 263.05 11.77Q262.85 12.64 262.85 13.48L262.85 13.48Q262.85 14.57 263.21 15.11Q263.58 15.64 264.28 15.64L264.28 15.64Q264.61 15.64 265.01 15.51Q265.40 15.37 265.80 15.13Q266.21 14.90 266.60 14.56Q266.99 14.22 267.33 13.82L267.33 13.82Q267.82 13.23 268.21 12.48Q268.60 11.73 268.88 10.89Q269.15 10.05 269.30 9.16Q269.44 8.27 269.44 7.42L269.44 7.42Q269.44 7.08 269.43 6.85Q269.42 6.62 269.39 6.46Q269.37 6.30 269.36 6.20Q269.35 6.10 269.33 6.03L269.33 6.03Q269.50 6.12 269.70 6.24Q269.91 6.36 270.08 6.59Q270.26 6.82 270.38 7.20Q270.49 7.57 270.49 8.18L270.49 8.18Q270.49 9.16 270.26 10.10Q270.03 11.05 269.62 11.90Q269.21 12.75 268.65 13.50Q268.09 14.24 267.44 14.80L267.44 14.80Q266.60 15.54 265.65 15.95Q264.70 16.35 263.82 16.35L263.82 16.35Q262.53 16.35 261.85 15.53Q261.17 14.71 261.17 13.12L261.17 13.12Q261.17 12.26 261.36 11.31Q261.55 10.36 261.89 9.44Q262.23 8.51 262.71 7.68Q263.19 6.85 263.75 6.21Q264.32 5.57 264.97 5.19Q265.62 4.82 266.31 4.82L266.31 4.82Q266.53 4.82 266.73 4.85Q266.92 4.89 267.15 4.98ZM279.06 16.24L279.06 16.24Q278.26 16.00 277.98 15.79Q277.70 15.57 277.70 15.19L277.70 15.19Q277.70 14.77 277.90 14.01Q278.10 13.24 278.41 12.31Q278.73 11.37 279.13 10.35Q279.54 9.32 279.96 8.39Q280.38 7.45 280.78 6.67Q281.18 5.89 281.48 5.46L281.48 5.46L281.39 4.87Q281.58 4.87 281.93 4.97Q282.28 5.07 282.64 5.21Q283.00 5.35 283.27 5.49Q283.54 5.64 283.57 5.74L283.57 5.74Q283.50 6.08 283.46 6.76Q283.42 7.43 283.42 8.20L283.42 8.20Q283.42 9.73 283.53 11.19Q283.65 12.66 284.09 14.17L284.09 14.17Q284.31 13.05 284.57 11.94Q284.83 10.82 285.11 9.81Q285.39 8.79 285.67 7.92Q285.95 7.06 286.21 6.40Q286.47 5.75 286.69 5.38Q286.92 5.01 287.10 4.98L287.10 4.98Q287.25 5.01 287.43 5.10Q287.62 5.19 287.78 5.32Q287.95 5.45 288.09 5.60Q288.23 5.75 288.32 5.91L288.32 5.91Q287.87 6.09 287.43 6.76Q286.99 7.43 286.59 8.39Q286.19 9.35 285.84 10.47Q285.50 11.59 285.24 12.68Q284.98 13.76 284.84 14.69Q284.69 15.61 284.68 16.17L284.68 16.17Q284.68 16.20 284.69 16.21L284.69 16.21Q284.65 16.23 284.60 16.23Q284.55 16.23 284.51 16.23L284.51 16.23Q283.86 16.23 283.37 16.07Q282.87 15.90 282.72 15.61L282.72 15.61Q282.42 14.43 282.23 13.34Q282.03 12.25 281.90 11.16Q281.76 10.07 281.69 8.95Q281.61 7.84 281.57 6.62L281.57 6.62Q281.30 7.04 281.01 7.72Q280.71 8.40 280.43 9.21Q280.15 10.02 279.89 10.92Q279.64 11.82 279.44 12.67Q279.24 13.52 279.13 14.29Q279.02 15.05 279.02 15.61L279.02 15.61Q279.02 15.90 279.03 16.03Q279.03 16.16 279.06 16.24ZM298.83 16.07L298.83 16.07Q298.51 16.24 298.14 16.24L298.14 16.24Q297.70 16.18 297.28 16.02Q296.87 15.85 296.67 15.61L296.67 15.61Q296.56 14.92 296.49 14.35Q296.42 13.78 296.38 13.27Q296.34 12.75 296.32 12.29Q296.31 11.82 296.31 11.34L296.31 11.34Q296.31 10.71 296.32 10.01Q296.34 9.31 296.36 8.52Q296.38 7.73 296.39 6.82Q296.41 5.92 296.41 4.86L296.41 4.86Q296.59 4.86 296.95 4.96Q297.32 5.07 297.68 5.21Q298.03 5.35 298.31 5.49Q298.59 5.64 298.62 5.74L298.62 5.74Q298.48 6.13 298.38 6.76Q298.27 7.39 298.21 8.16Q298.14 8.93 298.12 9.79Q298.09 10.64 298.09 11.48L298.09 11.48Q298.09 12.11 298.10 12.61Q298.12 13.10 298.14 13.50Q298.16 13.90 298.20 14.25Q298.24 14.59 298.30 14.92L298.30 14.92Q298.69 13.73 299.16 12.54Q299.63 11.35 300.13 10.25Q300.62 9.16 301.11 8.20Q301.60 7.25 302.04 6.54Q302.48 5.84 302.83 5.43Q303.18 5.01 303.41 4.98L303.41 4.98Q303.56 5.01 303.74 5.10Q303.91 5.19 304.07 5.32Q304.22 5.45 304.35 5.60Q304.47 5.75 304.54 5.91L304.54 5.91Q304.02 6.09 303.43 6.76Q302.83 7.43 302.23 8.38Q301.63 9.32 301.06 10.44Q300.50 11.55 300.04 12.61Q299.59 13.68 299.26 14.60Q298.94 15.53 298.83 16.07ZM315.80 9.21L315.80 9.21Q316.26 9.21 316.52 9.46Q316.78 9.72 316.78 10.16L316.78 10.16Q316.78 10.28 316.76 10.39Q316.74 10.51 316.71 10.60L316.71 10.60Q316.53 10.57 316.30 10.55Q316.08 10.53 315.77 10.53L315.77 10.53Q315.17 10.53 314.55 10.63Q313.94 10.74 313.38 10.81L313.38 10.81Q313.05 11.55 312.79 12.24Q312.52 12.94 312.33 13.51Q312.14 14.08 312.04 14.50Q311.93 14.92 311.92 15.13L311.92 15.13Q313.05 14.90 314.21 14.73Q315.36 14.56 316.64 14.48L316.64 14.48Q316.79 14.71 316.90 14.99Q317.00 15.27 317.00 15.60L317.00 15.60Q317.00 15.68 317.00 15.78Q317.00 15.88 316.97 15.97L316.97 15.97Q316.58 15.96 316.15 15.95Q315.71 15.95 315.01 15.95L315.01 15.95Q314.55 15.95 314.14 15.97Q313.73 15.99 313.31 16.03Q312.89 16.07 312.42 16.14Q311.95 16.21 311.36 16.31L311.36 16.31Q310.72 16.06 310.11 15.08L310.11 15.08Q310.35 14.57 310.78 13.54Q311.21 12.52 311.86 10.79L311.86 10.79Q311.23 10.60 311.04 10.09L311.04 10.09Q311.11 10.02 311.44 9.92Q311.78 9.81 312.27 9.70L312.27 9.70Q312.48 9.16 312.63 8.75Q312.77 8.34 312.89 7.99Q313.00 7.63 313.09 7.29Q313.18 6.94 313.26 6.54L313.26 6.54Q312.77 6.51 312.49 6.27Q312.21 6.02 312.21 5.63L312.21 5.63Q312.21 5.52 312.25 5.36Q312.28 5.21 312.33 5.10L312.33 5.10Q312.61 5.14 312.86 5.15Q313.12 5.17 313.54 5.17L313.54 5.17Q314.43 5.17 315.20 5.12Q315.97 5.07 316.59 5.01Q317.21 4.96 317.66 4.91Q318.11 4.86 318.35 4.86L318.35 4.86Q318.67 4.86 318.92 5.19Q319.17 5.53 319.30 6.15L319.30 6.15Q318.86 6.10 318.59 6.09Q318.32 6.08 318.11 6.08L318.11 6.08Q317.34 6.08 316.70 6.15Q316.06 6.23 315.48 6.31L315.48 6.31Q315.39 6.44 315.29 6.64Q315.18 6.83 315.01 7.18Q314.85 7.53 314.60 8.06Q314.36 8.60 314.01 9.39L314.01 9.39Q314.54 9.31 315.01 9.26Q315.48 9.21 315.80 9.21ZM326.79 16.24L326.79 16.24Q325.99 16.00 325.71 15.79Q325.43 15.57 325.43 15.19L325.43 15.19Q325.43 14.77 325.63 14.01Q325.82 13.24 326.14 12.31Q326.45 11.37 326.86 10.35Q327.26 9.32 327.68 8.39Q328.10 7.45 328.50 6.67Q328.90 5.89 329.21 5.46L329.21 5.46L329.11 4.87Q329.31 4.87 329.66 4.97Q330.01 5.07 330.37 5.21Q330.72 5.35 331.00 5.49Q331.27 5.64 331.30 5.74L331.30 5.74Q331.23 6.08 331.18 6.76Q331.14 7.43 331.14 8.20L331.14 8.20Q331.14 9.73 331.26 11.19Q331.38 12.66 331.81 14.17L331.81 14.17Q332.04 13.05 332.30 11.94Q332.56 10.82 332.84 9.81Q333.12 8.79 333.40 7.92Q333.68 7.06 333.94 6.40Q334.19 5.75 334.42 5.38Q334.64 5.01 334.82 4.98L334.82 4.98Q334.98 5.01 335.16 5.10Q335.34 5.19 335.51 5.32Q335.68 5.45 335.82 5.60Q335.96 5.75 336.04 5.91L336.04 5.91Q335.59 6.09 335.15 6.76Q334.71 7.43 334.31 8.39Q333.91 9.35 333.57 10.47Q333.23 11.59 332.97 12.68Q332.71 13.76 332.56 14.69Q332.42 15.61 332.40 16.17L332.40 16.17Q332.40 16.20 332.42 16.21L332.42 16.21Q332.37 16.23 332.32 16.23Q332.28 16.23 332.23 16.23L332.23 16.23Q331.59 16.23 331.09 16.07Q330.60 15.90 330.44 15.61L330.44 15.61Q330.15 14.43 329.95 13.34Q329.76 12.25 329.62 11.16Q329.49 10.07 329.41 8.95Q329.34 7.84 329.29 6.62L329.29 6.62Q329.03 7.04 328.73 7.72Q328.44 8.40 328.16 9.21Q327.88 10.02 327.62 10.92Q327.36 11.82 327.17 12.67Q326.97 13.52 326.86 14.29Q326.75 15.05 326.75 15.61L326.75 15.61Q326.75 15.90 326.75 16.03Q326.76 16.16 326.79 16.24ZM342.52 14.38L342.52 14.38Q342.52 13.87 342.69 13.07Q342.85 12.26 343.11 11.33Q343.36 10.40 343.70 9.43Q344.04 8.46 344.39 7.60Q344.74 6.75 345.07 6.10Q345.41 5.46 345.67 5.18L345.67 5.18Q345.81 5.19 346.05 5.29Q346.28 5.38 346.51 5.50Q346.75 5.63 346.95 5.78Q347.14 5.92 347.20 6.05L347.20 6.05Q346.79 6.41 346.39 7.15Q346.00 7.88 345.63 8.82Q345.25 9.76 344.93 10.80Q344.61 11.84 344.37 12.82Q344.13 13.80 344.00 14.64Q343.87 15.48 343.87 16.00L343.87 16.00Q343.87 16.24 343.91 16.30L343.91 16.30Q343.60 16.28 343.46 16.19Q343.32 16.10 343.25 16.00Q343.17 15.89 343.11 15.79Q343.04 15.68 342.92 15.62L342.92 15.62Q342.82 15.58 342.75 15.43Q342.68 15.27 342.63 15.09Q342.58 14.90 342.55 14.70Q342.52 14.50 342.52 14.38ZM359.30 9.21L359.30 9.21Q359.76 9.21 360.02 9.46Q360.28 9.72 360.28 10.16L360.28 10.16Q360.28 10.28 360.25 10.39Q360.23 10.51 360.21 10.60L360.21 10.60Q360.02 10.57 359.80 10.55Q359.58 10.53 359.27 10.53L359.27 10.53Q358.67 10.53 358.05 10.63Q357.43 10.74 356.87 10.81L356.87 10.81Q356.55 11.55 356.29 12.24Q356.02 12.94 355.83 13.51Q355.64 14.08 355.54 14.50Q355.43 14.92 355.42 15.13L355.42 15.13Q356.55 14.90 357.71 14.73Q358.86 14.56 360.14 14.48L360.14 14.48Q360.29 14.71 360.40 14.99Q360.50 15.27 360.50 15.60L360.50 15.60Q360.50 15.68 360.50 15.78Q360.50 15.88 360.47 15.97L360.47 15.97Q360.08 15.96 359.65 15.95Q359.21 15.95 358.51 15.95L358.51 15.95Q358.05 15.95 357.64 15.97Q357.22 15.99 356.80 16.03Q356.38 16.07 355.92 16.14Q355.45 16.21 354.86 16.31L354.86 16.31Q354.21 16.06 353.61 15.08L353.61 15.08Q353.85 14.57 354.28 13.54Q354.70 12.52 355.36 10.79L355.36 10.79Q354.73 10.60 354.54 10.09L354.54 10.09Q354.61 10.02 354.94 9.92Q355.28 9.81 355.77 9.70L355.77 9.70Q355.98 9.16 356.13 8.75Q356.27 8.34 356.38 7.99Q356.50 7.63 356.59 7.29Q356.68 6.94 356.76 6.54L356.76 6.54Q356.27 6.51 355.99 6.27Q355.71 6.02 355.71 5.63L355.71 5.63Q355.71 5.52 355.75 5.36Q355.78 5.21 355.82 5.10L355.82 5.10Q356.10 5.14 356.36 5.15Q356.62 5.17 357.04 5.17L357.04 5.17Q357.92 5.17 358.69 5.12Q359.46 5.07 360.09 5.01Q360.71 4.96 361.16 4.91Q361.61 4.86 361.84 4.86L361.84 4.86Q362.17 4.86 362.42 5.19Q362.67 5.53 362.80 6.15L362.80 6.15Q362.36 6.10 362.09 6.09Q361.82 6.08 361.61 6.08L361.61 6.08Q360.84 6.08 360.20 6.15Q359.56 6.23 358.97 6.31L358.97 6.31Q358.89 6.44 358.79 6.64Q358.68 6.83 358.51 7.18Q358.34 7.53 358.10 8.06Q357.85 8.60 357.50 9.39L357.50 9.39Q358.04 9.31 358.50 9.26Q358.97 9.21 359.30 9.21ZM370.29 16.24L370.29 16.24Q369.49 16.00 369.21 15.79Q368.93 15.57 368.93 15.19L368.93 15.19Q368.93 14.77 369.12 14.01Q369.32 13.24 369.64 12.31Q369.95 11.37 370.36 10.35Q370.76 9.32 371.18 8.39Q371.60 7.45 372.00 6.67Q372.40 5.89 372.71 5.46L372.71 5.46L372.61 4.87Q372.81 4.87 373.16 4.97Q373.51 5.07 373.86 5.21Q374.22 5.35 374.49 5.49Q374.77 5.64 374.79 5.74L374.79 5.74Q374.72 6.08 374.68 6.76Q374.64 7.43 374.64 8.20L374.64 8.20Q374.64 9.73 374.76 11.19Q374.88 12.66 375.31 14.17L375.31 14.17Q375.54 13.05 375.80 11.94Q376.05 10.82 376.33 9.81Q376.61 8.79 376.89 7.92Q377.17 7.06 377.43 6.40Q377.69 5.75 377.92 5.38Q378.14 5.01 378.32 4.98L378.32 4.98Q378.48 5.01 378.66 5.10Q378.84 5.19 379.01 5.32Q379.18 5.45 379.32 5.60Q379.46 5.75 379.54 5.91L379.54 5.91Q379.09 6.09 378.65 6.76Q378.21 7.43 377.81 8.39Q377.41 9.35 377.07 10.47Q376.73 11.59 376.47 12.68Q376.21 13.76 376.06 14.69Q375.91 15.61 375.90 16.17L375.90 16.17Q375.90 16.20 375.91 16.21L375.91 16.21Q375.87 16.23 375.82 16.23Q375.77 16.23 375.73 16.23L375.73 16.23Q375.09 16.23 374.59 16.07Q374.09 15.90 373.94 15.61L373.94 15.61Q373.65 14.43 373.45 13.34Q373.25 12.25 373.12 11.16Q372.99 10.07 372.91 8.95Q372.83 7.84 372.79 6.62L372.79 6.62Q372.53 7.04 372.23 7.72Q371.94 8.40 371.66 9.21Q371.38 10.02 371.12 10.92Q370.86 11.82 370.66 12.67Q370.47 13.52 370.36 14.29Q370.24 15.05 370.24 15.61L370.24 15.61Q370.24 15.90 370.25 16.03Q370.26 16.16 370.29 16.24ZM388.37 6.69L388.37 6.69Q387.81 6.69 387.51 6.38Q387.21 6.06 387.21 5.61L387.21 5.61Q387.21 5.50 387.25 5.35Q387.28 5.19 387.34 5.08L387.34 5.08Q387.52 5.17 387.88 5.20Q388.23 5.24 388.71 5.24L388.71 5.24Q389.42 5.24 390.33 5.17Q391.23 5.11 392.06 5.04Q392.88 4.97 393.51 4.91Q394.14 4.84 394.32 4.84L394.32 4.84Q394.84 4.84 395.07 5.23Q395.30 5.61 395.42 6.26L395.42 6.26Q395.05 6.23 394.70 6.21Q394.34 6.19 394.09 6.19L394.09 6.19Q393.64 6.19 393.18 6.22Q392.73 6.24 392.27 6.30L392.27 6.30Q392.07 6.71 391.83 7.26Q391.59 7.81 391.36 8.41Q391.13 9.02 390.92 9.61Q390.71 10.21 390.56 10.68L390.56 10.68Q390.25 11.61 390.02 12.39Q389.79 13.17 389.61 13.85Q389.44 14.53 389.31 15.15Q389.19 15.76 389.09 16.35L389.09 16.35Q388.15 16.21 387.52 15.18L387.52 15.18Q387.63 14.74 387.79 14.23Q387.95 13.72 388.17 13.07Q388.39 12.42 388.68 11.59Q388.98 10.77 389.35 9.72L389.35 9.72Q389.49 9.32 389.65 8.90Q389.80 8.47 389.95 8.05Q390.10 7.63 390.22 7.24Q390.33 6.85 390.42 6.52L390.42 6.52Q389.83 6.59 389.31 6.64Q388.78 6.69 388.37 6.69Z"></path></g></svg>