<svg data-v-423bf9ae="" xmlns="http://www.w3.org/2000/svg" viewBox="0 0 199.0156601716301 60" class="font"><g data-v-423bf9ae="" id="e9764f77-9dd6-4d7b-bf8a-a8c28c72168e" fill="white" transform="matrix(4.474272981560021,0,0,4.474272981560021,-4.876954423434768,-13.020134521951015)"><path d="M4.56 4.07L4.56 4.07Q5.45 3.61 6.44 3.61Q7.43 3.61 8.04 3.96Q8.65 4.30 8.65 4.93L8.65 4.93Q8.65 5.28 8.52 5.58Q8.39 5.88 8.27 6.01Q8.16 6.13 7.94 6.33L7.94 6.33Q7.59 5.53 7.08 5.11Q6.57 4.69 5.80 4.69Q5.03 4.69 4.45 5.15Q3.86 5.61 3.54 6.30Q3.21 6.99 2.98 7.84L2.98 7.84Q2.60 9.28 2.60 10.68L2.60 10.68Q2.60 12.94 3.33 14.14Q4.06 15.34 5.50 15.34L5.50 15.34Q6.29 15.34 6.90 14.85Q7.50 14.36 7.83 13.43L7.83 13.43Q8.18 13.82 8.18 14.39L8.18 14.39Q8.18 15.12 7.23 15.72Q6.29 16.32 5.11 16.32L5.11 16.32Q3.08 16.32 2.09 14.94Q1.09 13.55 1.09 11.33L1.09 11.33Q1.09 9.06 1.96 7.10L1.96 7.10Q2.91 4.94 4.56 4.07ZM9.77 13.89L9.77 13.89Q9.77 13.12 10.03 11.48Q10.29 9.84 10.29 8.67Q10.29 7.49 10.00 6.93L10.00 6.93Q10.35 6.61 10.84 6.61L10.84 6.61Q11.87 6.61 11.87 7.67L11.87 7.67Q11.87 8.02 11.54 10.36Q11.21 12.70 11.21 13.80Q11.21 14.91 11.89 14.91L11.89 14.91Q12.45 14.91 13.24 13.59Q14.04 12.28 14.60 10.63Q15.16 8.99 15.16 8.20Q15.16 7.41 14.95 6.93L14.95 6.93Q15.32 6.61 15.81 6.61L15.81 6.61Q16.84 6.61 16.84 7.67L16.84 7.67Q16.84 8.44 16.58 10.04Q16.31 11.63 16.31 12.54L16.31 12.54Q16.31 14.53 16.97 15.61L16.97 15.61Q16.55 16.13 16.02 16.13L16.02 16.13Q14.81 16.13 14.81 13.17L14.81 13.17Q14.81 12.89 14.98 11.34L14.98 11.34Q13.79 14.15 12.99 15.19L12.99 15.19Q12.66 15.64 12.24 15.95Q11.83 16.25 11.44 16.25L11.44 16.25Q9.77 16.25 9.77 13.89ZM21.97 4.35Q21.97 5.12 21.43 8.71Q20.89 12.29 20.89 13.67Q20.89 15.05 21.42 15.62L21.42 15.62Q20.99 16.13 20.45 16.13L20.45 16.13Q19.36 16.13 19.36 14.28L19.36 14.28Q19.36 13.59 19.86 10.19Q20.36 6.79 20.36 5.30Q20.36 3.81 20.06 3.22L20.06 3.22Q20.22 3.09 20.50 3.00Q20.79 2.91 21.00 2.91L21.00 2.91Q21.49 2.91 21.73 3.25Q21.97 3.58 21.97 4.35ZM27.20 15.82L27.20 15.82L27.22 16.00Q26.75 16.17 26.43 16.17L26.43 16.17Q25.86 16.17 25.72 15.57L25.72 15.57Q24.57 10.68 23.93 9.23L23.93 9.23Q23.45 8.12 23.16 7.85Q22.88 7.57 22.67 7.57L22.67 7.57Q22.82 7.10 23.16 6.87Q23.49 6.65 23.81 6.65L23.81 6.65Q24.67 6.65 25.24 8.09L25.24 8.09Q25.56 8.95 26.87 14.49L26.87 14.49Q27.58 12.78 28.06 10.87Q28.53 8.96 28.53 7.88L28.53 7.88Q28.53 7.48 28.38 7.21L28.38 7.21Q28.70 6.69 29.37 6.69L29.37 6.69Q30.02 6.69 30.02 7.43Q30.02 8.18 29.20 10.72Q28.39 13.27 27.44 15.16L27.44 15.16Q27.22 15.62 27.20 15.82ZM33.53 12.10L33.53 12.10Q33.15 12.10 32.77 12.05L32.77 12.05Q32.79 13.61 33.36 14.42Q33.92 15.23 34.94 15.23L34.94 15.23Q36.39 15.23 37.04 13.82L37.04 13.82Q37.38 14.14 37.38 14.60L37.38 14.60Q37.38 15.39 36.51 15.83Q35.63 16.27 34.68 16.27L34.68 16.27Q32.98 16.27 32.12 15.19Q31.26 14.11 31.26 12.40L31.26 12.40Q31.26 11.38 31.58 10.34Q31.91 9.30 32.47 8.42Q33.03 7.55 33.91 7.00Q34.79 6.45 35.84 6.45Q36.89 6.45 37.44 6.99Q38.00 7.52 38.00 8.36L38.00 8.36Q38.00 9.72 36.74 10.91Q35.49 12.10 33.53 12.10ZM36.53 8.82Q36.53 8.25 36.17 7.88Q35.81 7.50 35.19 7.50Q34.57 7.50 34.11 7.85Q33.66 8.20 33.39 8.79L33.39 8.79Q32.91 9.88 32.80 11.16L32.80 11.16Q33.14 11.20 33.43 11.20L33.43 11.20Q34.86 11.20 35.69 10.46Q36.53 9.73 36.53 8.82L36.53 8.82ZM40.94 16.13L40.94 16.13Q39.84 16.13 39.84 14.28L39.84 14.28Q39.84 13.51 40.14 11.68Q40.43 9.84 40.43 8.67Q40.43 7.49 40.14 6.93L40.14 6.93Q40.49 6.61 40.99 6.61L40.99 6.61Q42.01 6.61 42.01 7.67L42.01 7.67Q42.01 8.05 41.84 9.23Q41.66 10.40 41.61 10.84L41.61 10.84Q42.36 8.85 43.31 7.65Q44.25 6.45 44.87 6.45L44.87 6.45Q45.22 6.45 45.40 6.79Q45.57 7.13 45.57 7.48Q45.57 7.83 45.49 8.19L45.49 8.19Q45.28 8.15 45.09 8.15L45.09 8.15Q44.20 8.15 43.30 9.20Q42.39 10.25 41.88 11.51Q41.37 12.77 41.37 13.59L41.37 13.59Q41.37 15.05 41.90 15.62L41.90 15.62Q41.47 16.13 40.94 16.13Z"></path></g></svg>